<mxfile host="app.diagrams.net" modified="2024-01-26T16:35:30.929Z" agent="Mozilla/5.0 (Macintosh; Intel Mac OS X 10_15_7) AppleWebKit/537.36 (KHTML, like Gecko) Chrome/120.0.0.0 Safari/537.36" etag="HQQgf5NXmeHQ4O71u3QW" version="23.0.2" type="github">
  <diagram name="第 1 页" id="Nam8FnQmq0RQWlmBj1w9">
    <mxGraphModel dx="995" dy="638" grid="1" gridSize="10" guides="1" tooltips="1" connect="1" arrows="1" fold="1" page="1" pageScale="1" pageWidth="827" pageHeight="1169" math="0" shadow="0">
      <root>
        <mxCell id="0" />
        <mxCell id="1" parent="0" />
        <mxCell id="mypAHgAsRbytXFxFdDSr-1" value="&lt;font style=&quot;font-size: 36px;&quot;&gt;1&amp;nbsp; 1&amp;nbsp; 1&amp;nbsp; 1&amp;nbsp; 2&amp;nbsp; 2&amp;nbsp; 1&lt;/font&gt;" style="rounded=0;whiteSpace=wrap;html=1;" vertex="1" parent="1">
          <mxGeometry x="220" y="120" width="350" height="50" as="geometry" />
        </mxCell>
        <mxCell id="mypAHgAsRbytXFxFdDSr-2" value="" style="shape=crossbar;whiteSpace=wrap;html=1;rounded=1;" vertex="1" parent="1">
          <mxGeometry x="380" y="170" width="110" height="20" as="geometry" />
        </mxCell>
        <mxCell id="mypAHgAsRbytXFxFdDSr-3" value="操作" style="text;html=1;align=center;verticalAlign=middle;resizable=0;points=[];autosize=1;strokeColor=none;fillColor=none;" vertex="1" parent="1">
          <mxGeometry x="410" y="180" width="50" height="30" as="geometry" />
        </mxCell>
        <mxCell id="mypAHgAsRbytXFxFdDSr-5" value="&lt;font style=&quot;font-size: 36px;&quot;&gt;1&amp;nbsp; 1&amp;nbsp; 1&amp;nbsp; 2&amp;nbsp; 2&amp;nbsp; 2&amp;nbsp; 1&lt;/font&gt;" style="rounded=0;whiteSpace=wrap;html=1;" vertex="1" parent="1">
          <mxGeometry x="220" y="210" width="350" height="50" as="geometry" />
        </mxCell>
        <mxCell id="mypAHgAsRbytXFxFdDSr-6" value="" style="shape=crossbar;whiteSpace=wrap;html=1;rounded=1;" vertex="1" parent="1">
          <mxGeometry x="340" y="260" width="110" height="20" as="geometry" />
        </mxCell>
        <mxCell id="mypAHgAsRbytXFxFdDSr-7" value="操作" style="text;html=1;align=center;verticalAlign=middle;resizable=0;points=[];autosize=1;strokeColor=none;fillColor=none;" vertex="1" parent="1">
          <mxGeometry x="370" y="270" width="50" height="30" as="geometry" />
        </mxCell>
        <mxCell id="mypAHgAsRbytXFxFdDSr-8" value="&lt;font style=&quot;font-size: 36px;&quot;&gt;1&amp;nbsp; 1&amp;nbsp; 2&amp;nbsp; 2&amp;nbsp; 2&amp;nbsp; 2&amp;nbsp; 1&lt;/font&gt;" style="rounded=0;whiteSpace=wrap;html=1;" vertex="1" parent="1">
          <mxGeometry x="220" y="310" width="350" height="50" as="geometry" />
        </mxCell>
        <mxCell id="mypAHgAsRbytXFxFdDSr-10" value="" style="shape=crossbar;whiteSpace=wrap;html=1;rounded=1;" vertex="1" parent="1">
          <mxGeometry x="300" y="360" width="110" height="20" as="geometry" />
        </mxCell>
        <mxCell id="mypAHgAsRbytXFxFdDSr-11" value="操作" style="text;html=1;align=center;verticalAlign=middle;resizable=0;points=[];autosize=1;strokeColor=none;fillColor=none;" vertex="1" parent="1">
          <mxGeometry x="330" y="370" width="50" height="30" as="geometry" />
        </mxCell>
        <mxCell id="mypAHgAsRbytXFxFdDSr-12" value="&lt;font style=&quot;font-size: 36px;&quot;&gt;1&amp;nbsp; 2&amp;nbsp; 2&amp;nbsp; 2&amp;nbsp; 2&amp;nbsp; 2&amp;nbsp; 1&lt;/font&gt;" style="rounded=0;whiteSpace=wrap;html=1;" vertex="1" parent="1">
          <mxGeometry x="220" y="410" width="350" height="50" as="geometry" />
        </mxCell>
      </root>
    </mxGraphModel>
  </diagram>
</mxfile>
